<svg version="1.1" id="Layer_1" xmlns="http://www.w3.org/2000/svg" xmlns:xlink="http://www.w3.org/1999/xlink" x="0px" y="0px"
	 width="100%" viewBox="0 0 200 150" enable-background="new 0 0 200 150" xml:space="preserve">
<path fill="#EC4A32" opacity="1.000000" stroke="none" 
	d="
M142.000000,151.000000 
	C114.979103,151.000000 87.958214,151.000000 60.821758,150.788300 
	C60.456020,150.089935 60.205837,149.603271 60.043999,148.778198 
	C61.330173,146.884613 62.379623,145.182541 63.749901,143.798004 
	C72.717148,134.737427 81.817230,125.807373 90.714249,116.679054 
	C92.494247,114.852791 93.586533,112.356224 95.456558,110.097382 
	C100.216782,109.844521 104.628265,110.216820 108.794418,109.374992 
	C120.133064,107.083893 127.552887,99.617851 133.154434,89.971039 
	C135.199036,89.354469 137.392685,88.951019 138.713638,87.656815 
	C149.861252,76.734970 160.818527,65.619263 171.897720,54.627033 
	C177.901505,48.670380 184.031372,42.840794 190.411713,37.127121 
	C193.506454,44.528252 196.266876,51.766907 199.138123,58.961330 
	C199.342590,59.473648 200.360382,59.661358 201.000000,60.000000 
	C201.000000,70.354225 201.000000,80.708458 200.661407,91.246758 
	C199.884689,92.262238 199.239868,93.046844 199.039413,93.932068 
	C196.034698,107.201134 189.423401,118.548767 180.137360,128.275436 
	C170.072418,138.817978 157.793274,145.730026 143.546021,149.086868 
	C142.915451,149.235428 142.510208,150.340485 142.000000,151.000000 
z"/>
<path fill="#EA3B33" opacity="1.000000" stroke="none" 
	d="
M60.000000,1.000000 
	C79.687561,1.000000 99.375122,1.000000 119.445679,1.330834 
	C118.727638,3.099179 117.772675,4.682527 116.504280,5.952930 
	C82.726494,39.784286 48.926392,73.593399 15.078452,107.354538 
	C13.596420,108.832771 11.625957,109.821327 9.576734,110.863823 
	C7.154635,104.814072 5.073195,98.925468 2.864077,93.085159 
	C2.666610,92.563103 1.641000,92.354294 1.000000,92.000000 
	C1.000000,81.645775 1.000000,71.291542 1.346687,60.732010 
	C2.662209,57.652733 3.555233,54.750576 4.611739,51.909206 
	C13.975703,26.725809 31.470066,10.317126 57.402046,2.978933 
	C58.376652,2.703140 59.138828,1.676659 60.000000,1.000000 
z"/>
<path fill="#EB4133" opacity="1.000000" stroke="none" 
	d="
M9.883014,111.037979 
	C11.625957,109.821327 13.596420,108.832771 15.078452,107.354538 
	C48.926392,73.593399 82.726494,39.784286 116.504280,5.952930 
	C117.772675,4.682527 118.727638,3.099179 119.914337,1.330834 
	C127.020950,1.000000 134.041901,1.000000 141.256638,1.341190 
	C146.299789,3.510197 151.149170,5.338014 155.899323,7.479498 
	C146.104767,17.457438 136.277359,26.994862 126.796165,36.864876 
	C124.026169,39.748474 122.242279,43.579327 119.656120,46.892254 
	C112.172943,42.103470 104.232132,41.366528 95.987518,41.992920 
	C81.165955,43.119007 66.711914,58.835445 66.969246,73.598091 
	C67.061890,78.912987 69.210480,81.239792 74.593552,81.019661 
	C77.835411,80.887093 81.266037,80.470100 84.222107,79.242470 
	C90.920372,76.460747 97.377396,73.098122 104.119942,70.193672 
	C104.539162,70.943649 104.770958,71.471664 104.719940,72.187363 
	C103.978798,74.641930 103.520462,76.908813 102.894112,79.471809 
	C87.694260,86.915009 72.683525,94.107346 57.598152,101.139580 
	C56.080891,101.846870 54.111790,101.584885 52.352379,101.772736 
	C51.922939,101.044548 51.493496,100.316360 51.064056,99.588173 
	C55.965260,95.145363 60.866463,90.702545 66.531487,85.567345 
	C64.887840,85.780334 64.125389,85.642975 63.761848,85.961258 
	C57.032063,91.853104 50.230236,97.673508 43.752377,103.833679 
	C42.353134,105.164314 42.156395,107.759460 41.405769,109.772156 
	C43.601334,110.079582 46.032639,111.152649 47.951607,110.561775 
	C56.212463,108.018166 64.284866,104.867203 72.519974,102.231339 
	C74.188690,101.697220 76.446228,101.990364 78.120514,102.670120 
	C83.820831,104.984451 89.381767,107.642128 94.995911,110.168724 
	C93.586533,112.356224 92.494247,114.852791 90.714249,116.679054 
	C81.817230,125.807373 72.717148,134.737427 63.749901,143.798004 
	C62.379623,145.182541 61.330173,146.884613 59.637974,148.731812 
	C50.949150,145.636261 42.270840,143.080734 34.675148,138.663544 
	C23.645325,132.249313 15.191002,122.900215 9.883014,111.037979 
z"/>
<path fill="#000000" opacity="1.000000" stroke="none" 
	d="
M155.998535,7.165832 
	C151.149170,5.338014 146.299789,3.510197 141.725220,1.341190 
	C161.593475,1.000000 181.186935,1.000000 201.000000,1.000000 
	C201.000000,20.353674 201.000000,39.708179 201.000000,59.531342 
	C200.360382,59.661358 199.342590,59.473648 199.138123,58.961330 
	C196.266876,51.766907 193.506454,44.528252 190.265778,36.809204 
	C184.346451,27.757626 178.282028,19.777119 168.891571,14.568052 
	C164.497452,11.892849 160.248001,9.529341 155.998535,7.165832 
z"/>
<path fill="#000000" opacity="1.000000" stroke="none" 
	d="
M9.576734,110.863823 
	C15.191002,122.900215 23.645325,132.249313 34.675148,138.663544 
	C42.270840,143.080734 50.949150,145.636261 59.549629,149.070206 
	C60.205837,149.603271 60.456020,150.089935 60.353100,150.788300 
	C40.406528,151.000000 20.813059,151.000000 1.000000,151.000000 
	C1.000000,131.646332 1.000000,112.291824 1.000000,92.468658 
	C1.641000,92.354294 2.666610,92.563103 2.864077,93.085159 
	C5.073195,98.925468 7.154635,104.814072 9.576734,110.863823 
z"/>
<path fill="#000000" opacity="1.000000" stroke="none" 
	d="
M142.468658,151.000000 
	C142.510208,150.340485 142.915451,149.235428 143.546021,149.086868 
	C157.793274,145.730026 170.072418,138.817978 180.137360,128.275436 
	C189.423401,118.548767 196.034698,107.201134 199.039413,93.932068 
	C199.239868,93.046844 199.884689,92.262238 200.661407,91.715416 
	C201.000000,111.593468 201.000000,131.186935 201.000000,151.000000 
	C181.646332,151.000000 162.291824,151.000000 142.468658,151.000000 
z"/>
<path fill="#000000" opacity="1.000000" stroke="none" 
	d="
M59.531342,1.000000 
	C59.138828,1.676659 58.376652,2.703140 57.402046,2.978933 
	C31.470066,10.317126 13.975703,26.725809 4.611739,51.909206 
	C3.555233,54.750576 2.662209,57.652733 1.346687,60.263351 
	C1.000000,40.406528 1.000000,20.813059 1.000000,1.000000 
	C20.353674,1.000000 39.708179,1.000000 59.531342,1.000000 
z"/>
<path fill="#EC4633" opacity="1.000000" stroke="none" 
	d="
M169.036209,14.879747 
	C178.282028,19.777119 184.346451,27.757626 189.958420,36.635975 
	C184.031372,42.840794 177.901505,48.670380 171.897720,54.627033 
	C160.818527,65.619263 149.861252,76.734970 138.713638,87.656815 
	C137.392685,88.951019 135.199036,89.354469 133.177032,89.578949 
	C133.298508,87.744049 133.645538,86.498878 134.008560,85.258392 
	C135.279724,80.914650 136.798019,75.570618 132.838486,72.923759 
	C129.873352,70.941635 124.567131,71.047813 120.776276,72.036942 
	C114.666618,73.631088 108.946693,76.718880 103.062134,79.175705 
	C103.520462,76.908813 103.978798,74.641930 105.025253,72.154022 
	C106.076233,70.671013 106.539078,69.409019 107.302544,67.964020 
	C110.732521,66.179024 113.861870,64.577026 117.240425,63.118942 
	C118.654297,62.493118 119.818970,61.723377 121.171715,60.659721 
	C129.088074,57.144680 136.784454,53.842613 144.572021,50.771793 
	C146.101074,50.168846 147.982635,50.459770 149.701614,50.338440 
	C149.939423,50.914845 150.177216,51.491249 150.415009,52.067654 
	C145.597412,56.667709 140.779816,61.267765 135.962204,65.867821 
	C136.316986,66.217613 136.671768,66.567406 137.026550,66.917198 
	C145.335434,60.682919 153.852676,54.639172 159.935379,45.928581 
	C162.131577,42.783546 161.005493,40.867638 157.134506,41.088020 
	C153.401291,41.300560 149.708527,42.223431 146.045105,42.497604 
	C146.849915,41.117527 147.487320,39.954758 148.384888,39.050117 
	C153.990311,33.400578 159.806305,27.950016 165.212051,22.117950 
	C167.004013,20.184652 167.790192,17.319086 169.036209,14.879747 
z"/>
<path fill="#FFFDFD" opacity="1.000000" stroke="none" 
	d="
M102.894112,79.471809 
	C108.946693,76.718880 114.666618,73.631088 120.776276,72.036942 
	C124.567131,71.047813 129.873352,70.941635 132.838486,72.923759 
	C136.798019,75.570618 135.279724,80.914650 134.008560,85.258392 
	C133.645538,86.498878 133.298508,87.744049 132.921555,89.379166 
	C127.552887,99.617851 120.133064,107.083893 108.794418,109.374992 
	C104.628265,110.216820 100.216782,109.844521 95.456558,110.097382 
	C89.381767,107.642128 83.820831,104.984451 78.120514,102.670120 
	C76.446228,101.990364 74.188690,101.697220 72.519974,102.231339 
	C64.284866,104.867203 56.212463,108.018166 47.951607,110.561775 
	C46.032639,111.152649 43.601334,110.079582 41.405769,109.772156 
	C42.156395,107.759460 42.353134,105.164314 43.752377,103.833679 
	C50.230236,97.673508 57.032063,91.853104 63.761848,85.961258 
	C64.125389,85.642975 64.887840,85.780334 66.531487,85.567345 
	C60.866463,90.702545 55.965260,95.145363 51.064056,99.588173 
	C51.493496,100.316360 51.922939,101.044548 52.352379,101.772736 
	C54.111790,101.584885 56.080891,101.846870 57.598152,101.139580 
	C72.683525,94.107346 87.694260,86.915009 102.894112,79.471809 
z"/>
<path fill="#FFFDFD" opacity="1.000000" stroke="none" 
	d="
M145.997986,42.834244 
	C149.708527,42.223431 153.401291,41.300560 157.134506,41.088020 
	C161.005493,40.867638 162.131577,42.783546 159.935379,45.928581 
	C153.852676,54.639172 145.335434,60.682919 137.026550,66.917198 
	C136.671768,66.567406 136.316986,66.217613 135.962204,65.867821 
	C140.779816,61.267765 145.597412,56.667709 150.415009,52.067654 
	C150.177216,51.491249 149.939423,50.914845 149.701614,50.338440 
	C147.982635,50.459770 146.101074,50.168846 144.572021,50.771793 
	C136.784454,53.842613 129.088074,57.144680 120.841141,60.697319 
	C119.212067,61.677559 118.101639,62.326290 116.991219,62.975025 
	C113.861870,64.577026 110.732521,66.179024 106.989929,67.987617 
	C105.561966,68.786713 104.747238,69.379204 103.932510,69.971695 
	C97.377396,73.098122 90.920372,76.460747 84.222107,79.242470 
	C81.266037,80.470100 77.835411,80.887093 74.593552,81.019661 
	C69.210480,81.239792 67.061890,78.912987 66.969246,73.598091 
	C66.711914,58.835445 81.165955,43.119007 95.987518,41.992920 
	C104.232132,41.366528 112.172943,42.103470 119.874672,47.165497 
	C123.875740,51.853027 127.674294,51.060078 132.022217,48.817162 
	C136.514206,46.499912 141.326065,44.802700 145.997986,42.834244 
z"/>
<path fill="#EA4233" opacity="1.000000" stroke="none" 
	d="
M146.045105,42.497604 
	C141.326065,44.802700 136.514206,46.499912 132.022217,48.817162 
	C127.674294,51.060078 123.875740,51.853027 120.224945,47.249245 
	C122.242279,43.579327 124.026169,39.748474 126.796165,36.864876 
	C136.277359,26.994862 146.104767,17.457438 155.899323,7.479498 
	C160.248001,9.529341 164.497452,11.892849 168.891571,14.568053 
	C167.790192,17.319086 167.004013,20.184652 165.212051,22.117950 
	C159.806305,27.950016 153.990311,33.400578 148.384888,39.050117 
	C147.487320,39.954758 146.849915,41.117527 146.045105,42.497604 
z"/>
<path fill="#EC4734" opacity="1.000000" stroke="none" 
	d="
M104.119942,70.193665 
	C104.747238,69.379204 105.561966,68.786713 106.689301,68.170624 
	C106.539078,69.409019 106.076233,70.671013 105.308075,71.966339 
	C104.770958,71.471664 104.539162,70.943649 104.119942,70.193665 
z"/>
<path fill="#EC4734" opacity="1.000000" stroke="none" 
	d="
M117.240425,63.118938 
	C118.101639,62.326290 119.212067,61.677559 120.653069,60.991230 
	C119.818970,61.723377 118.654297,62.493118 117.240425,63.118938 
z"/>
</svg>